<svg data-v-fde0c5aa="" xmlns="http://www.w3.org/2000/svg" viewBox="0 0 300 300" class="iconLeft"><!----><defs data-v-fde0c5aa=""><!----></defs><rect data-v-fde0c5aa="" fill="transparent" x="0" y="0" width="300px" height="300px" class="logo-background-square"></rect><defs data-v-fde0c5aa=""><!----></defs><g data-v-fde0c5aa="" id="23b63ca3-4a3a-4fbb-b73a-bf2a9adcac88" fill="#000000" transform="matrix(3.025431157105787,0,0,3.025431157105787,109.75708775713281,118.02119287136114)"><path d="M4.52 14.52C6.31 14.52 7.06 13.44 7.53 12.38L6.52 11.91C6.17 12.78 5.71 13.50 4.52 13.50C2.97 13.50 2.23 12.22 2.23 10.26L2.23 8.67C2.23 6.71 2.97 5.43 4.52 5.43C5.71 5.43 6.17 6.15 6.52 7.01L7.53 6.55C7.06 5.49 6.31 4.41 4.52 4.41C2.14 4.41 0.98 6.22 0.98 9.46C0.98 12.71 2.14 14.52 4.52 14.52ZM9.77 14.35L10.89 14.35L10.89 9.34C10.89 8.39 11.79 7.95 12.68 7.95C13.79 7.95 14.39 8.60 14.39 9.91L14.39 14.35L15.51 14.35L15.51 9.72C15.51 7.97 14.52 6.96 13.01 6.96C11.82 6.96 11.26 7.59 10.95 8.30L10.89 8.30L10.89 3.99L9.77 3.99ZM24.50 14.35L24.50 13.37L23.49 13.37L23.49 9.39C23.49 7.87 22.41 6.96 20.72 6.96C19.25 6.96 18.33 7.66 17.96 8.41L18.72 8.97C19.10 8.32 19.68 7.91 20.65 7.91C21.74 7.91 22.37 8.46 22.37 9.51L22.37 10.22L20.83 10.22C18.66 10.22 17.72 10.99 17.72 12.32C17.72 13.68 18.69 14.52 20.20 14.52C21.38 14.52 22.06 14 22.37 13.17L22.44 13.17C22.53 13.85 22.86 14.35 23.73 14.35ZM20.40 13.58C19.47 13.58 18.90 13.19 18.90 12.45L18.90 12.15C18.90 11.45 19.50 11.06 20.83 11.06L22.37 11.06L22.37 12.25C22.37 12.99 21.55 13.58 20.40 13.58ZM32.56 14.35L32.56 13.40L29.27 13.40L29.27 8.08L32.56 8.08L32.56 7.13L29.27 7.13L29.27 4.58L28.20 4.58L28.20 6.47C28.20 6.96 28.01 7.13 27.54 7.13L25.75 7.13L25.75 8.08L28.15 8.08L28.15 12.70C28.15 13.66 28.66 14.35 29.75 14.35ZM40.96 14.35L40.96 13.40L37.67 13.40L37.67 8.08L40.96 8.08L40.96 7.13L37.67 7.13L37.67 4.58L36.60 4.58L36.60 6.47C36.60 6.96 36.41 7.13 35.94 7.13L34.15 7.13L34.15 8.08L36.55 8.08L36.55 12.70C36.55 13.66 37.06 14.35 38.15 14.35ZM47.32 10.15L46.24 12.89L46.19 12.89L45.11 10.15L43.89 7.13L42.74 7.13L45.65 14.21L44.84 16.20L43.16 16.20L43.16 17.15L44.23 17.15C45.32 17.15 45.74 16.76 46.07 15.93L49.66 7.13L48.54 7.13Z"></path></g><defs data-v-fde0c5aa=""><linearGradient data-v-fde0c5aa="" gradientTransform="rotate(25)" id="34771794-3f62-40fa-9897-50f0cd58fd96" x1="0%" y1="0%" x2="100%" y2="0%"><stop data-v-fde0c5aa="" offset="0%" stop-color="#6A4F4C" stop-opacity="1"></stop><stop data-v-fde0c5aa="" offset="100%" stop-color="#A0A29B" stop-opacity="1"></stop></linearGradient></defs><g data-v-fde0c5aa="" id="c9bae2c1-efe5-4ebf-be17-a529388a2cd7" stroke="none" fill="url(#34771794-3f62-40fa-9897-50f0cd58fd96)" transform="matrix(1.8663128234000623,0,0,1.8663128234000623,40,120.138994825599)"><path d="M9.382 8.675h13.943v13.943L32 31.293V0H.707zM22.618 23.325H8.675V9.382L0 .707V32h31.293z"></path></g><!----></svg>